<?xml version="1.0" encoding="UTF-8" standalone="no"?>
<!DOCTYPE svg PUBLIC "-//W3C//DTD SVG 1.1//EN" "http://www.w3.org/Graphics/SVG/1.1/DTD/svg11.dtd">
<svg width="100%" height="100%" viewBox="0 0 1920 1080" version="1.1" xmlns="http://www.w3.org/2000/svg" xmlns:xlink="http://www.w3.org/1999/xlink" xml:space="preserve" xmlns:serif="http://www.serif.com/" style="fill-rule:evenodd;clip-rule:evenodd;stroke-linejoin:round;stroke-miterlimit:2;">
    <path id="A" d="M1564.541,406.114L1545.996,350.751L1586.553,350.751L1714.002,731.212L1673.444,731.212L1565.965,410.364L1458.387,731.212L1417.792,731.212L1526.738,406.282L1564.541,406.114Z" style="fill:rgb(245,245,247);"/>
    <path id="I" d="M1355.473,512.982L1323.818,487.982L1323.818,370.318L1355.473,348.521L1355.473,512.982ZM1355.473,512.982L1387.128,539.982L1387.128,708.645L1355.473,730.442L1355.473,512.982Z" style="fill:rgb(245,245,247);"/>
    <path id="D" d="M1143.782,755L1236.768,649.977L1236.768,430.023L1143.782,326.982L1143.782,381.475L1205.113,451.82L1205.113,628.18L1143.782,698.525" style="fill:rgb(245,245,247);"/>
    <path id="U" d="M1049.807,374.539L1049.807,649.977L955.832,755L862.846,649.977L862.846,374.539L894.501,396.336L894.501,627.189L955.832,698.525L1018.152,628.18L1018.152,396.336L1049.807,374.539Z" style="fill:rgb(245,245,247);"/>
    <path id="O" d="M815.364,649.844L721.491,755L628.403,649.844L628.403,430.156L721.491,325L815.364,430.156L815.364,649.844ZM783.709,627.927L783.709,452.073L721.595,381.475L660.058,452.073L660.058,627.927L721.595,698.525L783.709,627.927Z" style="fill:rgb(245,245,247);"/>
    <path id="L" d="M393.961,373.548L425.615,396.336L425.615,628.18L486.946,698.525L549.267,628.18L580.921,649.977L486.946,755L393.961,649.977L393.961,373.548Z" style="fill:rgb(245,245,247);"/>
    <path id="C" d="M299.986,753.018L207,647.995L207,428.041L299.986,325L299.986,379.493L238.655,449.839L238.655,626.198L299.986,696.544" style="fill:rgb(245,245,247);"/>
</svg>
